<svg xmlns="http://www.w3.org/2000/svg" width="28" height="28" viewBox="0 0 28 28">
    <g fill="none" fill-rule="nonzero">
        <path fill="#FBBB00" d="M27.75 11.386H14.308v5.536h7.483a8.34 8.34 0 0 1-3.589 4.26A8.321 8.321 0 0 1 6.13 11.296 8.324 8.324 0 0 1 18.4 6.938l4.533-3.712A13.936 13.936 0 0 0 14 .005 13.992 13.992 0 0 0 .005 14c0 2.4.604 4.658 1.668 6.632C4.037 25.016 8.671 27.995 14 27.995c3.316 0 6.363-1.154 8.761-3.081a13.992 13.992 0 0 0 4.99-13.528z"/>
        <path fill="#28B446" d="M22.76 24.913h.001A13.936 13.936 0 0 1 14 27.996c-5.33 0-9.963-2.98-12.327-7.363l4.535-3.712a8.321 8.321 0 0 0 11.994 4.261l4.559 3.732z"/>
        <path fill="#518EF8" d="M27.75 11.386a14.022 14.022 0 0 1-.061 5.536 13.992 13.992 0 0 1-4.928 7.992v-.001l-4.559-3.732a8.34 8.34 0 0 0 3.589-4.259h-7.483v-5.536H27.75z"/>
        <path fill="#FC3F1D" d="M22.933 3.227L18.399 6.94a8.324 8.324 0 0 0-12.27 4.358L1.572 7.563A13.992 13.992 0 0 1 14 .005c3.396 0 6.51 1.21 8.933 3.222z"/>
    </g>
</svg>
