<svg width="194" height="40" viewBox="0 0 194 40" fill="none" xmlns="http://www.w3.org/2000/svg">
<path d="M12.0892 35.2412C8.63513 35.2412 5.79887 34.4123 3.58042 32.7546C1.36196 31.0682 0.16849 28.6674 0 25.552H8.80362C8.88786 26.6095 9.19676 27.3812 9.73031 27.8671C10.2639 28.353 10.9519 28.5959 11.7943 28.5959C12.5525 28.5959 13.1703 28.4101 13.6477 28.0386C14.1532 27.6384 14.4059 27.0954 14.4059 26.4094C14.4059 25.5234 13.9987 24.8374 13.1844 24.3516C12.37 23.8657 11.0502 23.3226 9.22484 22.7224C7.2872 22.065 5.71463 21.4362 4.50711 20.836C3.32768 20.2072 2.28866 19.3069 1.39004 18.135C0.519512 16.9346 0.0842452 15.3769 0.0842452 13.462C0.0842452 11.5184 0.561634 9.86067 1.51641 8.48875C2.47119 7.08825 3.79103 6.03073 5.47593 5.31618C7.16084 4.60164 9.07039 4.24437 11.2046 4.24437C14.6587 4.24437 17.4107 5.07324 19.4606 6.73098C21.5387 8.36013 22.6479 10.661 22.7883 13.6334H13.8162C13.7881 12.7188 13.5073 12.0329 12.9738 11.5756C12.4683 11.1183 11.8084 10.8896 10.994 10.8896C10.3762 10.8896 9.87072 11.0754 9.47758 11.4469C9.08443 11.8185 8.88786 12.3473 8.88786 13.0332C8.88786 13.6049 9.09848 14.105 9.5197 14.5338C9.96901 14.9339 10.5166 15.2912 11.1625 15.6056C11.8084 15.8914 12.7631 16.263 14.0268 16.7203C15.9083 17.3776 17.4528 18.035 18.6603 18.6924C19.8959 19.3212 20.949 20.2215 21.8195 21.3934C22.7181 22.5366 23.1674 23.9943 23.1674 25.7663C23.1674 27.567 22.7181 29.1819 21.8195 30.6109C20.949 32.04 19.6712 33.169 17.9863 33.9979C16.3295 34.8267 14.3638 35.2412 12.0892 35.2412Z" fill="#196AA2"/>
<path d="M38.2101 35.2412C34.7561 35.2412 31.9198 34.4123 29.7013 32.7546C27.4829 31.0682 26.2894 28.6674 26.1209 25.552H34.9245C35.0088 26.6095 35.3177 27.3812 35.8512 27.8671C36.3848 28.353 37.0728 28.5959 37.9152 28.5959C38.6735 28.5959 39.2913 28.4101 39.7686 28.0386C40.2741 27.6384 40.5268 27.0954 40.5268 26.4094C40.5268 25.5234 40.1197 24.8374 39.3053 24.3516C38.4909 23.8657 37.1711 23.3226 35.3458 22.7224C33.4081 22.065 31.8356 21.4362 30.628 20.836C29.4486 20.2072 28.4096 19.3069 27.511 18.135C26.6404 16.9346 26.2052 15.3769 26.2052 13.462C26.2052 11.5184 26.6826 9.86067 27.6373 8.48875C28.5921 7.08825 29.912 6.03073 31.5969 5.31618C33.2818 4.60164 35.1913 4.24437 37.3255 4.24437C40.7796 4.24437 43.5316 5.07324 45.5816 6.73098C47.6596 8.36013 48.7688 10.661 48.9092 13.6334H39.9371C39.909 12.7188 39.6282 12.0329 39.0947 11.5756C38.5892 11.1183 37.9293 10.8896 37.1149 10.8896C36.4971 10.8896 35.9916 11.0754 35.5985 11.4469C35.2054 11.8185 35.0088 12.3473 35.0088 13.0332C35.0088 13.6049 35.2194 14.105 35.6406 14.5338C36.0899 14.9339 36.6375 15.2912 37.2834 15.6056C37.9293 15.8914 38.8841 16.263 40.1477 16.7203C42.0292 17.3776 43.5737 18.035 44.7812 18.6924C46.0168 19.3212 47.0699 20.2215 47.9404 21.3934C48.839 22.5366 49.2883 23.9943 49.2883 25.7663C49.2883 27.567 48.839 29.1819 47.9404 30.6109C47.0699 32.04 45.7922 33.169 44.1073 33.9979C42.4504 34.8267 40.4847 35.2412 38.2101 35.2412Z" fill="#196AA2"/>
<path d="M87.7933 4.71597V34.9411H79.5373V18.2637L73.935 34.9411H67.0269L61.3825 18.135V34.9411H53.1264V4.71597H63.1095L70.5652 24.3516L77.8524 4.71597H87.7933Z" fill="#196AA2"/>
<path d="M120.901 40L117.615 34.9839C116.688 35.1554 115.748 35.2412 114.793 35.2412C112.013 35.2412 109.457 34.5838 107.127 33.269C104.796 31.9257 102.942 30.0822 101.566 27.7385C100.218 25.3662 99.5445 22.6938 99.5445 19.7213C99.5445 16.7488 100.218 14.0907 101.566 11.7471C102.942 9.37478 104.796 7.53126 107.127 6.21651C109.457 4.90175 112.013 4.24437 114.793 4.24437C117.601 4.24437 120.156 4.90175 122.459 6.21651C124.79 7.53126 126.629 9.37478 127.977 11.7471C129.325 14.0907 129.999 16.7488 129.999 19.7213C129.999 22.2079 129.508 24.5088 128.525 26.6238C127.542 28.7103 126.194 30.4537 124.481 31.8542L130.757 40H120.901ZM107.969 19.7213C107.969 22.0936 108.573 23.98 109.78 25.3805C110.988 26.7524 112.659 27.4384 114.793 27.4384C116.899 27.4384 118.556 26.7381 119.763 25.3376C120.999 23.9371 121.617 22.065 121.617 19.7213C121.617 17.3205 120.999 15.4341 119.763 14.0622C118.556 12.6617 116.899 11.9614 114.793 11.9614C112.659 11.9614 110.988 12.6617 109.78 14.0622C108.573 15.4341 107.969 17.3205 107.969 19.7213Z" fill="#196AA2"/>
<path d="M157.93 10.8896V34.9411H149.632V31.5113C148.93 32.5974 147.961 33.4834 146.725 34.1693C145.49 34.8267 144.072 35.1554 142.471 35.1554C139.719 35.1554 137.543 34.2408 135.942 32.4116C134.369 30.5538 133.583 28.0386 133.583 24.866V10.8896H141.797V23.7942C141.797 25.1661 142.148 26.2522 142.85 27.0525C143.58 27.8242 144.535 28.2101 145.714 28.2101C146.922 28.2101 147.877 27.8242 148.579 27.0525C149.281 26.2522 149.632 25.1661 149.632 23.7942V10.8896H157.93Z" fill="#196AA2"/>
<path d="M166.799 8.66024C165.339 8.66024 164.159 8.26009 163.26 7.45981C162.39 6.63094 161.955 5.602 161.955 4.37299C161.955 3.1154 162.39 2.07217 163.26 1.2433C164.159 0.414434 165.339 0 166.799 0C168.231 0 169.382 0.414434 170.253 1.2433C171.151 2.07217 171.601 3.1154 171.601 4.37299C171.601 5.602 171.151 6.63094 170.253 7.45981C169.382 8.26009 168.231 8.66024 166.799 8.66024ZM170.885 10.8896V34.9411H162.629V10.8896H170.885Z" fill="#196AA2"/>
<path d="M183.421 27.9528H193.488V34.9411H174.323V28.2958L183.716 17.8778H174.407V10.8896H193.151V17.5348L183.421 27.9528Z" fill="#196AA2"/>
</svg>
